<svg xmlns="http://www.w3.org/2000/svg" width="24" height="24" viewBox="0 0 1161 1280">
	<g transform="translate(0,1280) scale(0.1,-0.1)">
		<path d="M5766 12198 c-2 -7 -12 -42 -21 -78 -84 -319 -355 -568 -680 -625
-111 -19 -180 -19 -290 0 -167 29 -309 101 -433 219 -115 109 -177 204 -233
356 -22 59 -31 74 -46 72 -108 -17 -388 -96 -554 -156 -113 -41 -251 -97 -262
-106 -4 -4 1 -40 13 -81 12 -41 23 -120 27 -179 22 -410 -252 -778 -654 -877
-101 -25 -304 -22 -408 6 -104 27 -248 99 -326 161 -34 28 -65 50 -69 50 -3 0
-71 -66 -151 -147 -136 -139 -205 -215 -308 -340 l-43 -53 55 -50 c100 -92
188 -237 233 -387 24 -76 27 -107 28 -228 1 -162 -13 -230 -75 -363 -113 -244
-304 -401 -577 -474 -97 -26 -307 -29 -392 -5 -30 9 -58 12 -62 8 -33 -31
-188 -701 -188 -810 0 -12 21 -21 91 -38 318 -76 556 -309 641 -627 30 -112
30 -307 0 -419 -76 -281 -288 -506 -563 -598 -52 -17 -95 -32 -96 -33 -3 -2
61 -254 80 -316 12 -41 16 -45 43 -43 193 15 244 14 329 -2 277 -52 500 -220
620 -468 68 -141 80 -197 80 -372 0 -171 -12 -228 -76 -363 -43 -93 -89 -161
-162 -239 l-49 -52 48 -63 c126 -163 481 -548 507 -548 5 0 35 23 66 52 289
265 710 313 1038 117 68 -42 193 -156 243 -224 163 -221 210 -524 121 -783
-16 -45 -26 -84 -22 -86 19 -12 222 -89 331 -126 122 -41 418 -120 450 -120
11 0 22 19 34 58 87 277 309 492 593 574 65 19 102 23 223 23 160 0 250 -19
360 -74 44 -22 56 -33 60 -57 5 -26 10 -29 54 -36 50 -7 76 -26 165 -122 83
-89 158 -230 190 -356 l19 -75 51 3 51 3 0 -33 c-1 -137 -111 -320 -244 -404
-25 -16 -46 -35 -46 -43 0 -21 112 -249 174 -355 l56 -95 63 30 c119 55 238
70 358 45 364 -77 539 -489 344 -810 -20 -32 -35 -60 -33 -61 92 -75 280 -196
385 -249 l52 -26 30 44 c43 62 135 143 202 177 212 106 460 68 624 -96 97 -97
149 -214 161 -365 l7 -78 46 -6 c25 -3 128 -9 229 -13 l182 -6 0 34 c0 61 28
168 62 237 22 45 56 90 103 137 110 110 220 155 378 155 155 0 289 -60 399
-179 29 -31 64 -78 78 -104 14 -26 29 -47 33 -47 21 0 238 104 339 163 163 95
152 83 123 142 -127 260 -17 588 240 715 66 33 176 60 245 60 72 0 180 -27
250 -62 36 -18 68 -34 71 -36 9 -4 170 238 219 329 l41 77 -35 21 c-95 59
-200 217 -225 339 -55 263 96 521 363 619 23 8 79 18 126 22 l85 6 7 40 c16
80 20 505 6 620 l-13 110 -95 7 c-52 3 -125 16 -161 27 -172 54 -319 212 -359
386 -15 64 -15 186 0 250 27 120 125 258 230 325 27 18 50 35 50 39 0 22 -126
225 -212 343 l-50 68 -49 -25 c-116 -59 -287 -74 -409 -36 -182 57 -318 198
-365 381 -25 95 -17 234 19 320 l26 65 -26 21 c-14 12 -72 48 -130 80 -59 34
-104 65 -104 74 0 8 16 81 36 162 20 81 34 153 31 161 -3 7 -25 19 -48 26
-107 32 -246 120 -336 213 -374 386 -308 1009 137 1307 87 58 209 112 283 126
20 4 39 10 41 14 11 17 -64 407 -115 601 -48 180 -174 551 -204 600 -3 4 -42
-5 -87 -21 -332 -113 -725 1 -942 273 -63 78 -138 223 -162 313 -21 79 -30
285 -15 370 28 158 126 348 235 454 l45 44 -60 66 c-108 119 -448 425 -517
465 -10 6 -31 -8 -65 -42 -106 -102 -251 -179 -415 -219 -100 -24 -285 -21
-387 6 -312 83 -539 313 -621 628 -19 74 -25 258 -11 354 l8 55 -112 33 c-176
52 -332 89 -492 116 -172 29 -176 29 -181 13z m-331 -3197 c325 -76 598 -229
815 -457 312 -328 473 -785 432 -1221 -22 -228 -65 -383 -163 -578 -149 -299
-388 -542 -690 -699 -347 -181 -769 -224 -1153 -116 -484 136 -896 523 -1060
997 -68 198 -81 281 -81 528 1 188 4 234 23 318 143 643 635 1121 1272 1237
146 27 471 22 605 -9z m3276 -4701 c306 -111 538 -372 620 -695 30 -117 32
-331 6 -443 -50 -210 -142 -369 -297 -515 -339 -320 -872 -355 -1255 -82 -70
50 -197 179 -244 248 -50 74 -117 222 -143 317 -32 120 -32 365 1 485 24 89
66 185 113 259 30 46 33 48 70 43 92 -12 244 -105 356 -217 47 -47 76 -69 84
-64 78 47 348 286 517 458 l133 136 -36 40 c-62 69 -48 75 75 30z"/>
	</g>
</svg>
